<svg xmlns="http://www.w3.org/2000/svg" xmlns:xlink="http://www.w3.org/1999/xlink" contentStyleType="text/css" height="684px" preserveAspectRatio="none" style="width:2715px;height:684px;background:#FFFFFF;" version="1.1" viewBox="0 0 2715 684" width="2715px" zoomAndPan="magnify"><defs/><g><!--cluster d77d5e503ad1439f585ac494268b351b--><g id="cluster_d77d5e503ad1439f585ac494268b351b"><polygon fill="none" points="16,48.59,26,38.59,206,38.59,206,566.67,196,576.67,16,576.67,16,48.59" style="stroke:#181818;stroke-width:1.0;"/><line style="stroke:#181818;stroke-width:1.0;" x1="196" x2="206" y1="48.59" y2="38.59"/><line style="stroke:#181818;stroke-width:1.0;" x1="16" x2="196" y1="48.59" y2="48.59"/><line style="stroke:#181818;stroke-width:1.0;" x1="196" x2="196" y1="48.59" y2="576.67"/><text fill="#000000" font-family="sans-serif" font-size="14" font-weight="bold" lengthAdjust="spacing" textLength="21" x="96.5" y="64.5851">Db</text></g><!--cluster 12470fe406d44017d96eab37dd65fc14--><g id="cluster_12470fe406d44017d96eab37dd65fc14"><polygon fill="none" points="292,16,302,6,1108,6,1108,566.67,1098,576.67,292,576.67,292,16" style="stroke:#181818;stroke-width:1.0;"/><line style="stroke:#181818;stroke-width:1.0;" x1="1098" x2="1108" y1="16" y2="6"/><line style="stroke:#181818;stroke-width:1.0;" x1="292" x2="1098" y1="16" y2="16"/><line style="stroke:#181818;stroke-width:1.0;" x1="1098" x2="1098" y1="16" y2="576.67"/><text fill="#000000" font-family="sans-serif" font-size="14" font-weight="bold" lengthAdjust="spacing" textLength="18" x="687" y="31.9951">Es</text></g><!--cluster ed29e75037443b824dbc1dcabe0af817--><g id="cluster_ed29e75037443b824dbc1dcabe0af817"><polygon fill="none" points="2440,48.59,2450,38.59,2698,38.59,2698,179.78,2688,189.78,2440,189.78,2440,48.59" style="stroke:#181818;stroke-width:1.0;"/><line style="stroke:#181818;stroke-width:1.0;" x1="2688" x2="2698" y1="48.59" y2="38.59"/><line style="stroke:#181818;stroke-width:1.0;" x1="2440" x2="2688" y1="48.59" y2="48.59"/><line style="stroke:#181818;stroke-width:1.0;" x1="2688" x2="2688" y1="48.59" y2="189.78"/><text fill="#000000" font-family="sans-serif" font-size="14" font-weight="bold" lengthAdjust="spacing" textLength="94" x="2518" y="64.5851">Memcached</text></g><!--cluster a6bccab89f308923e34d9cab5e22bf64--><g id="cluster_a6bccab89f308923e34d9cab5e22bf64"><polygon fill="none" points="1283,48.59,1293,38.59,2416,38.59,2416,566.67,2406,576.67,1283,576.67,1283,48.59" style="stroke:#181818;stroke-width:1.0;"/><line style="stroke:#181818;stroke-width:1.0;" x1="2406" x2="2416" y1="48.59" y2="38.59"/><line style="stroke:#181818;stroke-width:1.0;" x1="1283" x2="2406" y1="48.59" y2="48.59"/><line style="stroke:#181818;stroke-width:1.0;" x1="2406" x2="2406" y1="48.59" y2="576.67"/><text fill="#000000" font-family="sans-serif" font-size="14" font-weight="bold" lengthAdjust="spacing" textLength="140" x="1775.5" y="64.5851">Course-discovery</text></g><!--entity 355aeb7ac3f8fa43e8d94fbf0e4b8d6c--><g id="elem_355aeb7ac3f8fa43e8d94fbf0e4b8d6c"><rect fill="#F1F1F1" height="95.1875" rx="2.5" ry="2.5" style="stroke:#181818;stroke-width:0.5;" width="158" x="32" y="78.59"/><rect fill="#F1F1F1" height="10" style="stroke:#181818;stroke-width:0.5;" width="15" x="170" y="83.59"/><rect fill="#F1F1F1" height="2" style="stroke:#181818;stroke-width:0.5;" width="4" x="168" y="85.59"/><rect fill="#F1F1F1" height="2" style="stroke:#181818;stroke-width:0.5;" width="4" x="168" y="89.59"/><text fill="#000000" font-family="sans-serif" font-size="14" font-weight="bold" lengthAdjust="spacing" textLength="20" x="47" y="111.5851">db</text><text fill="#000000" font-family="sans-serif" font-size="14" lengthAdjust="spacing" textLength="4" x="47" y="127.882">&#160;</text><text fill="#000000" font-family="sans-serif" font-size="14" lengthAdjust="spacing" textLength="118" x="47" y="144.1789">image: mysql:5.7</text><text fill="#000000" font-family="sans-serif" font-size="14" lengthAdjust="spacing" textLength="4" x="47" y="160.4757">&#160;</text></g><!--entity 1d26fba9ad763582f6611cc37d18b99e--><g id="elem_1d26fba9ad763582f6611cc37d18b99e"><ellipse cx="163" cy="296.38" fill="#F1F1F1" rx="8" ry="8" style="stroke:#181818;stroke-width:0.5;"/><text fill="#000000" font-family="sans-serif" font-size="14" lengthAdjust="spacing" textLength="36" x="145" y="326.3751">3306</text></g><!--entity 335240261b3f541f5fb471b158fbba47--><g id="elem_335240261b3f541f5fb471b158fbba47"><rect fill="#F1F1F1" height="39.2969" rx="2.5" ry="2.5" style="stroke:#181818;stroke-width:0.5;" width="120" x="40" y="521.38"/><polygon fill="#F1F1F1" points="143,526.38,143,540.38,155,540.38,155,532.38,149,526.38,143,526.38" style="stroke:#181818;stroke-width:0.5;"/><line style="stroke:#181818;stroke-width:0.5;" x1="149" x2="149" y1="526.38" y2="532.38"/><line style="stroke:#181818;stroke-width:0.5;" x1="155" x2="149" y1="532.38" y2="532.38"/><text fill="#000000" font-family="sans-serif" font-size="14" lengthAdjust="spacing" textLength="90" x="50" y="547.3751">/var/lib/mysql</text></g><!--entity 0cd855cce83e7d426305cc51cc088621--><g id="elem_0cd855cce83e7d426305cc51cc088621"><rect fill="#F1F1F1" height="160.375" rx="2.5" ry="2.5" style="stroke:#181818;stroke-width:0.5;" width="401" x="691.5" y="46"/><rect fill="#F1F1F1" height="10" style="stroke:#181818;stroke-width:0.5;" width="15" x="1072.5" y="51"/><rect fill="#F1F1F1" height="2" style="stroke:#181818;stroke-width:0.5;" width="4" x="1070.5" y="53"/><rect fill="#F1F1F1" height="2" style="stroke:#181818;stroke-width:0.5;" width="4" x="1070.5" y="57"/><text fill="#000000" font-family="sans-serif" font-size="14" font-weight="bold" lengthAdjust="spacing" textLength="19" x="706.5" y="78.9951">es</text><text fill="#000000" font-family="sans-serif" font-size="14" lengthAdjust="spacing" textLength="4" x="706.5" y="95.292">&#160;</text><text fill="#000000" font-family="sans-serif" font-size="14" lengthAdjust="spacing" textLength="200" x="706.5" y="111.5889">image: elasticsearch:7.17.21</text><text fill="#000000" font-family="sans-serif" font-size="14" lengthAdjust="spacing" textLength="289" x="706.5" y="127.8857">environment: discovery.type=single-node</text><text fill="#000000" font-family="sans-serif" font-size="14" lengthAdjust="spacing" textLength="298" x="706.5" y="144.1826">environment: bootstrap.memory_lock=true</text><text fill="#000000" font-family="sans-serif" font-size="14" lengthAdjust="spacing" textLength="361" x="706.5" y="160.4795">environment: ES_JAVA_OPTS=-Xms512m -Xmx512m</text><text fill="#000000" font-family="sans-serif" font-size="14" lengthAdjust="spacing" textLength="204" x="706.5" y="176.7764">environment: http.port=9200</text><text fill="#000000" font-family="sans-serif" font-size="14" lengthAdjust="spacing" textLength="4" x="706.5" y="193.0732">&#160;</text></g><!--entity 605693217fec6c844e8ecc339fc26381--><g id="elem_605693217fec6c844e8ecc339fc26381"><ellipse cx="968" cy="296.38" fill="#F1F1F1" rx="8" ry="8" style="stroke:#181818;stroke-width:0.5;"/><text fill="#000000" font-family="sans-serif" font-size="14" lengthAdjust="spacing" textLength="36" x="950" y="326.3751">9200</text></g><!--entity 38d0bf08629bf0f54d6d81aa9862de34--><g id="elem_38d0bf08629bf0f54d6d81aa9862de34"><ellipse cx="1062" cy="296.38" fill="#F1F1F1" rx="8" ry="8" style="stroke:#181818;stroke-width:0.5;"/><text fill="#000000" font-family="sans-serif" font-size="14" lengthAdjust="spacing" textLength="36" x="1044" y="326.3751">9300</text></g><!--entity 7cbba8a1603213acbecd647fa574de79--><g id="elem_7cbba8a1603213acbecd647fa574de79"><rect fill="#F1F1F1" height="39.2969" rx="2.5" ry="2.5" style="stroke:#181818;stroke-width:0.5;" width="232" x="308" y="521.38"/><polygon fill="#F1F1F1" points="523,526.38,523,540.38,535,540.38,535,532.38,529,526.38,523,526.38" style="stroke:#181818;stroke-width:0.5;"/><line style="stroke:#181818;stroke-width:0.5;" x1="529" x2="529" y1="526.38" y2="532.38"/><line style="stroke:#181818;stroke-width:0.5;" x1="535" x2="529" y1="532.38" y2="532.38"/><text fill="#000000" font-family="sans-serif" font-size="14" lengthAdjust="spacing" textLength="202" x="318" y="547.3751">/usr/share/elasticsearch/data</text></g><!--entity 39e6a6a957c37e8fb66f7156a3c179cc--><g id="elem_39e6a6a957c37e8fb66f7156a3c179cc"><rect fill="#F1F1F1" height="39.2969" rx="2.5" ry="2.5" style="stroke:#181818;stroke-width:0.5;" width="231" x="574.5" y="521.38"/><polygon fill="#F1F1F1" points="788.5,526.38,788.5,540.38,800.5,540.38,800.5,532.38,794.5,526.38,788.5,526.38" style="stroke:#181818;stroke-width:0.5;"/><line style="stroke:#181818;stroke-width:0.5;" x1="794.5" x2="794.5" y1="526.38" y2="532.38"/><line style="stroke:#181818;stroke-width:0.5;" x1="800.5" x2="794.5" y1="532.38" y2="532.38"/><text fill="#000000" font-family="sans-serif" font-size="14" lengthAdjust="spacing" textLength="201" x="584.5" y="547.3751">/usr/share/elasticsearch/logs</text></g><!--entity ec40a5cc0ffe24a2983b1af78dd7f255--><g id="elem_ec40a5cc0ffe24a2983b1af78dd7f255"><rect fill="#F1F1F1" height="39.2969" rx="2.5" ry="2.5" style="stroke:#181818;stroke-width:0.5;" width="252" x="840" y="521.38"/><polygon fill="#F1F1F1" points="1075,526.38,1075,540.38,1087,540.38,1087,532.38,1081,526.38,1075,526.38" style="stroke:#181818;stroke-width:0.5;"/><line style="stroke:#181818;stroke-width:0.5;" x1="1081" x2="1081" y1="526.38" y2="532.38"/><line style="stroke:#181818;stroke-width:0.5;" x1="1087" x2="1081" y1="532.38" y2="532.38"/><text fill="#000000" font-family="sans-serif" font-size="14" lengthAdjust="spacing" textLength="222" x="850" y="547.3751">/usr/share/elasticsearch/plugins</text></g><!--entity d9797c56b82854ce53c7c6c740e657f6--><g id="elem_d9797c56b82854ce53c7c6c740e657f6"><rect fill="#F1F1F1" height="95.1875" rx="2.5" ry="2.5" style="stroke:#181818;stroke-width:0.5;" width="226" x="2456" y="78.59"/><rect fill="#F1F1F1" height="10" style="stroke:#181818;stroke-width:0.5;" width="15" x="2662" y="83.59"/><rect fill="#F1F1F1" height="2" style="stroke:#181818;stroke-width:0.5;" width="4" x="2660" y="85.59"/><rect fill="#F1F1F1" height="2" style="stroke:#181818;stroke-width:0.5;" width="4" x="2660" y="89.59"/><text fill="#000000" font-family="sans-serif" font-size="14" font-weight="bold" lengthAdjust="spacing" textLength="95" x="2471" y="111.5851">memcached</text><text fill="#000000" font-family="sans-serif" font-size="14" lengthAdjust="spacing" textLength="4" x="2471" y="127.882">&#160;</text><text fill="#000000" font-family="sans-serif" font-size="14" lengthAdjust="spacing" textLength="186" x="2471" y="144.1789">image: memcached:1.6.27</text><text fill="#000000" font-family="sans-serif" font-size="14" lengthAdjust="spacing" textLength="4" x="2471" y="160.4757">&#160;</text></g><!--entity 5785734213b8d553a50570ffb23c952f--><g id="elem_5785734213b8d553a50570ffb23c952f"><rect fill="#F1F1F1" height="95.1875" rx="2.5" ry="2.5" style="stroke:#181818;stroke-width:0.5;" width="255" x="1992.5" y="78.59"/><rect fill="#F1F1F1" height="10" style="stroke:#181818;stroke-width:0.5;" width="15" x="2227.5" y="83.59"/><rect fill="#F1F1F1" height="2" style="stroke:#181818;stroke-width:0.5;" width="4" x="2225.5" y="85.59"/><rect fill="#F1F1F1" height="2" style="stroke:#181818;stroke-width:0.5;" width="4" x="2225.5" y="89.59"/><text fill="#000000" font-family="sans-serif" font-size="14" font-weight="bold" lengthAdjust="spacing" textLength="138" x="2007.5" y="111.5851">course-discovery</text><text fill="#000000" font-family="sans-serif" font-size="14" lengthAdjust="spacing" textLength="4" x="2007.5" y="127.882">&#160;</text><text fill="#000000" font-family="sans-serif" font-size="14" lengthAdjust="spacing" textLength="215" x="2007.5" y="144.1789">image: edxops/discovery:latest</text><text fill="#000000" font-family="sans-serif" font-size="14" lengthAdjust="spacing" textLength="4" x="2007.5" y="160.4757">&#160;</text></g><!--entity 00ec6211f7b37b16e0021e197b742299--><g id="elem_00ec6211f7b37b16e0021e197b742299"><ellipse cx="2186" cy="296.38" fill="#F1F1F1" rx="8" ry="8" style="stroke:#181818;stroke-width:0.5;"/><text fill="#000000" font-family="sans-serif" font-size="14" lengthAdjust="spacing" textLength="45" x="2163.5" y="326.3751">18381</text></g><!--entity e69a8066253269d5c0acdc95af9c6e89--><g id="elem_e69a8066253269d5c0acdc95af9c6e89"><ellipse cx="2278" cy="296.38" fill="#F1F1F1" rx="8" ry="8" style="stroke:#181818;stroke-width:0.5;"/><text fill="#000000" font-family="sans-serif" font-size="14" lengthAdjust="spacing" textLength="36" x="2260" y="326.3751">8381</text></g><!--entity 7785862a577df56836e39bbed09a15da--><g id="elem_7785862a577df56836e39bbed09a15da"><ellipse cx="2370" cy="296.38" fill="#F1F1F1" rx="8" ry="8" style="stroke:#181818;stroke-width:0.5;"/><text fill="#000000" font-family="sans-serif" font-size="14" lengthAdjust="spacing" textLength="45" x="2347.5" y="326.3751">48381</text></g><!--entity 869498090ac775d3251c02f4ecc7ab1f--><g id="elem_869498090ac775d3251c02f4ecc7ab1f"><rect fill="#F1F1F1" height="39.2969" rx="2.5" ry="2.5" style="stroke:#181818;stroke-width:0.5;" width="231" x="1298.5" y="521.38"/><polygon fill="#F1F1F1" points="1512.5,526.38,1512.5,540.38,1524.5,540.38,1524.5,532.38,1518.5,526.38,1512.5,526.38" style="stroke:#181818;stroke-width:0.5;"/><line style="stroke:#181818;stroke-width:0.5;" x1="1518.5" x2="1518.5" y1="526.38" y2="532.38"/><line style="stroke:#181818;stroke-width:0.5;" x1="1524.5" x2="1518.5" y1="532.38" y2="532.38"/><text fill="#000000" font-family="sans-serif" font-size="14" lengthAdjust="spacing" textLength="201" x="1308.5" y="547.3751">/edx/app/discovery/discovery</text></g><!--entity 3f5d010b2e80203186ab507508a8b5d1--><g id="elem_3f5d010b2e80203186ab507508a8b5d1"><rect fill="#F1F1F1" height="39.2969" rx="2.5" ry="2.5" style="stroke:#181818;stroke-width:0.5;" width="339" x="1564.5" y="521.38"/><polygon fill="#F1F1F1" points="1886.5,526.38,1886.5,540.38,1898.5,540.38,1898.5,532.38,1892.5,526.38,1886.5,526.38" style="stroke:#181818;stroke-width:0.5;"/><line style="stroke:#181818;stroke-width:0.5;" x1="1892.5" x2="1892.5" y1="526.38" y2="532.38"/><line style="stroke:#181818;stroke-width:0.5;" x1="1898.5" x2="1892.5" y1="532.38" y2="532.38"/><text fill="#000000" font-family="sans-serif" font-size="14" lengthAdjust="spacing" textLength="309" x="1574.5" y="547.3751">/edx/app/discovery/discovery/node_modules</text></g><!--entity f44ab9ec9325b7bc5240b9bc1757255b--><g id="elem_f44ab9ec9325b7bc5240b9bc1757255b"><rect fill="#F1F1F1" height="39.2969" rx="2.5" ry="2.5" style="stroke:#181818;stroke-width:0.5;" width="202" x="1939" y="521.38"/><polygon fill="#F1F1F1" points="2124,526.38,2124,540.38,2136,540.38,2136,532.38,2130,526.38,2124,526.38" style="stroke:#181818;stroke-width:0.5;"/><line style="stroke:#181818;stroke-width:0.5;" x1="2130" x2="2130" y1="526.38" y2="532.38"/><line style="stroke:#181818;stroke-width:0.5;" x1="2136" x2="2130" y1="532.38" y2="532.38"/><text fill="#000000" font-family="sans-serif" font-size="14" lengthAdjust="spacing" textLength="172" x="1949" y="547.3751">/edx/var/discovery/media</text></g><!--entity 789ecd28b5f6ca17a2452e7cc9ed9304--><g id="elem_789ecd28b5f6ca17a2452e7cc9ed9304"><rect fill="#F1F1F1" height="39.2969" rx="2.5" ry="2.5" style="stroke:#181818;stroke-width:0.5;" width="224" x="2176" y="521.38"/><polygon fill="#F1F1F1" points="2383,526.38,2383,540.38,2395,540.38,2395,532.38,2389,526.38,2383,526.38" style="stroke:#181818;stroke-width:0.5;"/><line style="stroke:#181818;stroke-width:0.5;" x1="2389" x2="2389" y1="526.38" y2="532.38"/><line style="stroke:#181818;stroke-width:0.5;" x1="2395" x2="2389" y1="532.38" y2="532.38"/><text fill="#000000" font-family="sans-serif" font-size="14" lengthAdjust="spacing" textLength="194" x="2186" y="547.3751">/edx/var/discovery/staticfiles</text></g><!--entity e859f25eb7065dd4eea4fb946973908f--><g id="elem_e859f25eb7065dd4eea4fb946973908f"><ellipse cx="249" cy="431.38" fill="#F1F1F1" rx="8" ry="8" style="stroke:#181818;stroke-width:0.5;"/><text fill="#000000" font-family="sans-serif" font-size="14" lengthAdjust="spacing" textLength="36" x="231" y="461.3751">3306</text></g><!--entity f11af3547113106dd0505e0fedbf032a--><g id="elem_f11af3547113106dd0505e0fedbf032a"><ellipse cx="1151" cy="431.38" fill="#F1F1F1" rx="8" ry="8" style="stroke:#181818;stroke-width:0.5;"/><text fill="#000000" font-family="sans-serif" font-size="14" lengthAdjust="spacing" textLength="36" x="1133" y="461.3751">9200</text></g><!--entity da00a6243221f321c0cc7a8802b537f8--><g id="elem_da00a6243221f321c0cc7a8802b537f8"><ellipse cx="1240" cy="431.38" fill="#F1F1F1" rx="8" ry="8" style="stroke:#181818;stroke-width:0.5;"/><text fill="#000000" font-family="sans-serif" font-size="14" lengthAdjust="spacing" textLength="36" x="1222" y="461.3751">9300</text></g><!--entity 1ccfe473426413dc7e1fd5b39690265c--><g id="elem_1ccfe473426413dc7e1fd5b39690265c"><ellipse cx="2462" cy="431.38" fill="#F1F1F1" rx="8" ry="8" style="stroke:#181818;stroke-width:0.5;"/><text fill="#000000" font-family="sans-serif" font-size="14" lengthAdjust="spacing" textLength="45" x="2439.5" y="461.3751">18381</text></g><!--entity 93123a89c306fe23f9a83932f4cd11f1--><g id="elem_93123a89c306fe23f9a83932f4cd11f1"><ellipse cx="2554" cy="431.38" fill="#F1F1F1" rx="8" ry="8" style="stroke:#181818;stroke-width:0.5;"/><text fill="#000000" font-family="sans-serif" font-size="14" lengthAdjust="spacing" textLength="36" x="2536" y="461.3751">8381</text></g><!--entity eae0a4816a27581574b6b4ce013362e0--><g id="elem_eae0a4816a27581574b6b4ce013362e0"><ellipse cx="2646" cy="431.38" fill="#F1F1F1" rx="8" ry="8" style="stroke:#181818;stroke-width:0.5;"/><text fill="#000000" font-family="sans-serif" font-size="14" lengthAdjust="spacing" textLength="45" x="2623.5" y="461.3751">48381</text></g><!--entity 708ebcf3e9efa70df10edf52ceb54a90--><g id="elem_708ebcf3e9efa70df10edf52ceb54a90"><rect fill="#F1F1F1" height="39.2969" rx="2.5" ry="2.5" style="stroke:#181818;stroke-width:0.5;" width="154" x="23" y="639.67"/><polygon fill="#F1F1F1" points="160,644.67,160,658.67,172,658.67,172,650.67,166,644.67,160,644.67" style="stroke:#181818;stroke-width:0.5;"/><line style="stroke:#181818;stroke-width:0.5;" x1="166" x2="166" y1="644.67" y2="650.67"/><line style="stroke:#181818;stroke-width:0.5;" x1="172" x2="166" y1="650.67" y2="650.67"/><text fill="#000000" font-family="sans-serif" font-size="14" lengthAdjust="spacing" textLength="124" x="33" y="665.6651">./.dev/volumes/db</text></g><!--entity b54ebb51d6e82578a142d89bf881c987--><g id="elem_b54ebb51d6e82578a142d89bf881c987"><rect fill="#F1F1F1" height="39.2969" rx="2.5" ry="2.5" style="stroke:#181818;stroke-width:0.5;" width="188" x="330" y="639.67"/><polygon fill="#F1F1F1" points="501,644.67,501,658.67,513,658.67,513,650.67,507,644.67,501,644.67" style="stroke:#181818;stroke-width:0.5;"/><line style="stroke:#181818;stroke-width:0.5;" x1="507" x2="507" y1="644.67" y2="650.67"/><line style="stroke:#181818;stroke-width:0.5;" x1="513" x2="507" y1="650.67" y2="650.67"/><text fill="#000000" font-family="sans-serif" font-size="14" lengthAdjust="spacing" textLength="158" x="340" y="665.6651">./.dev/volumes/es/data</text></g><!--entity 3afa48f4b92a1b076e524cfb72ef6f27--><g id="elem_3afa48f4b92a1b076e524cfb72ef6f27"><rect fill="#F1F1F1" height="39.2969" rx="2.5" ry="2.5" style="stroke:#181818;stroke-width:0.5;" width="187" x="596.5" y="639.67"/><polygon fill="#F1F1F1" points="766.5,644.67,766.5,658.67,778.5,658.67,778.5,650.67,772.5,644.67,766.5,644.67" style="stroke:#181818;stroke-width:0.5;"/><line style="stroke:#181818;stroke-width:0.5;" x1="772.5" x2="772.5" y1="644.67" y2="650.67"/><line style="stroke:#181818;stroke-width:0.5;" x1="778.5" x2="772.5" y1="650.67" y2="650.67"/><text fill="#000000" font-family="sans-serif" font-size="14" lengthAdjust="spacing" textLength="157" x="606.5" y="665.6651">./.dev/volumes/es/logs</text></g><!--entity 8c54763f567116e69ba15acadd0f45eb--><g id="elem_8c54763f567116e69ba15acadd0f45eb"><rect fill="#F1F1F1" height="39.2969" rx="2.5" ry="2.5" style="stroke:#181818;stroke-width:0.5;" width="208" x="862" y="639.67"/><polygon fill="#F1F1F1" points="1053,644.67,1053,658.67,1065,658.67,1065,650.67,1059,644.67,1053,644.67" style="stroke:#181818;stroke-width:0.5;"/><line style="stroke:#181818;stroke-width:0.5;" x1="1059" x2="1059" y1="644.67" y2="650.67"/><line style="stroke:#181818;stroke-width:0.5;" x1="1065" x2="1059" y1="650.67" y2="650.67"/><text fill="#000000" font-family="sans-serif" font-size="14" lengthAdjust="spacing" textLength="178" x="872" y="665.6651">./.dev/volumes/es/plugins</text></g><!--entity 58b9e70b65a77700ba66e9c64d6b9f89--><g id="elem_58b9e70b65a77700ba66e9c64d6b9f89"><rect fill="#F1F1F1" height="39.2969" rx="2.5" ry="2.5" style="stroke:#181818;stroke-width:0.5;" width="34" x="1397" y="639.67"/><polygon fill="#F1F1F1" points="1414,644.67,1414,658.67,1426,658.67,1426,650.67,1420,644.67,1414,644.67" style="stroke:#181818;stroke-width:0.5;"/><line style="stroke:#181818;stroke-width:0.5;" x1="1420" x2="1420" y1="644.67" y2="650.67"/><line style="stroke:#181818;stroke-width:0.5;" x1="1426" x2="1420" y1="650.67" y2="650.67"/><text fill="#000000" font-family="sans-serif" font-size="14" lengthAdjust="spacing" textLength="4" x="1407" y="665.6651">.</text></g><!--entity bea6223569a87d78a6db219a7ce0703d--><g id="elem_bea6223569a87d78a6db219a7ce0703d"><rect fill="#F1F1F1" height="39.2969" rx="2.5" ry="2.5" style="stroke:#181818;stroke-width:0.5;" width="339" x="1563.5" y="639.67"/><polygon fill="#F1F1F1" points="1885.5,644.67,1885.5,658.67,1897.5,658.67,1897.5,650.67,1891.5,644.67,1885.5,644.67" style="stroke:#181818;stroke-width:0.5;"/><line style="stroke:#181818;stroke-width:0.5;" x1="1891.5" x2="1891.5" y1="644.67" y2="650.67"/><line style="stroke:#181818;stroke-width:0.5;" x1="1897.5" x2="1891.5" y1="650.67" y2="650.67"/><text fill="#000000" font-family="sans-serif" font-size="14" lengthAdjust="spacing" textLength="309" x="1573.5" y="665.6651">/edx/app/discovery/discovery/node_modules</text></g><!--entity e1635863dda4bcfdd7957416aac826f8--><g id="elem_e1635863dda4bcfdd7957416aac826f8"><rect fill="#F1F1F1" height="39.2969" rx="2.5" ry="2.5" style="stroke:#181818;stroke-width:0.5;" width="206" x="1937" y="639.67"/><polygon fill="#F1F1F1" points="2126,644.67,2126,658.67,2138,658.67,2138,650.67,2132,644.67,2126,644.67" style="stroke:#181818;stroke-width:0.5;"/><line style="stroke:#181818;stroke-width:0.5;" x1="2132" x2="2132" y1="644.67" y2="650.67"/><line style="stroke:#181818;stroke-width:0.5;" x1="2138" x2="2132" y1="650.67" y2="650.67"/><text fill="#000000" font-family="sans-serif" font-size="14" lengthAdjust="spacing" textLength="176" x="1947" y="665.6651">./course_discovery/media</text></g><!--entity 827d3c793e77b9f263e306864079db9c--><g id="elem_827d3c793e77b9f263e306864079db9c"><rect fill="#F1F1F1" height="39.2969" rx="2.5" ry="2.5" style="stroke:#181818;stroke-width:0.5;" width="210" x="2183" y="639.67"/><polygon fill="#F1F1F1" points="2376,644.67,2376,658.67,2388,658.67,2388,650.67,2382,644.67,2376,644.67" style="stroke:#181818;stroke-width:0.5;"/><line style="stroke:#181818;stroke-width:0.5;" x1="2382" x2="2382" y1="644.67" y2="650.67"/><line style="stroke:#181818;stroke-width:0.5;" x1="2388" x2="2382" y1="650.67" y2="650.67"/><text fill="#000000" font-family="sans-serif" font-size="14" lengthAdjust="spacing" textLength="180" x="2193" y="665.6651">./course_discovery/assets</text></g><!--link 355aeb7ac3f8fa43e8d94fbf0e4b8d6c to 1d26fba9ad763582f6611cc37d18b99e--><g id="link_355aeb7ac3f8fa43e8d94fbf0e4b8d6c_1d26fba9ad763582f6611cc37d18b99e"><path codeLine="66" d="M125.48,174.04 C137.81,213.89 154.45,267.72 160.59,287.59 " fill="none" id="355aeb7ac3f8fa43e8d94fbf0e4b8d6c-1d26fba9ad763582f6611cc37d18b99e" style="stroke:#181818;stroke-width:1.0;"/></g><!--link 1d26fba9ad763582f6611cc37d18b99e to e859f25eb7065dd4eea4fb946973908f--><g id="link_1d26fba9ad763582f6611cc37d18b99e_e859f25eb7065dd4eea4fb946973908f"><path codeLine="67" d="M168.12,305.3 C183.45,329.01 228.86,399.23 244.01,422.66 " fill="none" id="1d26fba9ad763582f6611cc37d18b99e-e859f25eb7065dd4eea4fb946973908f" style="stroke:#181818;stroke-width:1.0;"/></g><!--link 335240261b3f541f5fb471b158fbba47 to 708ebcf3e9efa70df10edf52ceb54a90--><g id="link_335240261b3f541f5fb471b158fbba47_708ebcf3e9efa70df10edf52ceb54a90"><path codeLine="68" d="M100,560.97 C100,582.59 100,617.76 100,639.39 " fill="none" id="335240261b3f541f5fb471b158fbba47-708ebcf3e9efa70df10edf52ceb54a90" style="stroke:#181818;stroke-width:1.0;"/><text fill="#000000" font-family="sans-serif" font-size="13" lengthAdjust="spacing" textLength="14" x="101" y="605.7369">rw</text></g><!--link 355aeb7ac3f8fa43e8d94fbf0e4b8d6c to 335240261b3f541f5fb471b158fbba47--><g id="link_355aeb7ac3f8fa43e8d94fbf0e4b8d6c_335240261b3f541f5fb471b158fbba47"><path codeLine="69" d="M109.75,174.14 C107.34,264.6 102.3099,453.5021 100.6699,515.0221 " fill="none" id="355aeb7ac3f8fa43e8d94fbf0e4b8d6c-to-335240261b3f541f5fb471b158fbba47" style="stroke:#181818;stroke-width:1.0;stroke-dasharray:7.0,7.0;"/><polygon fill="#181818" points="100.51,521.02,104.7484,512.1298,100.6432,516.0218,96.7513,511.9166,100.51,521.02" style="stroke:#181818;stroke-width:1.0;"/><text fill="#000000" font-family="sans-serif" font-size="13" lengthAdjust="spacing" textLength="23" x="105" y="368.4469">use</text></g><!--link 0cd855cce83e7d426305cc51cc088621 to 605693217fec6c844e8ecc339fc26381--><g id="link_0cd855cce83e7d426305cc51cc088621_605693217fec6c844e8ecc339fc26381"><path codeLine="70" d="M928,206.85 C942.73,239.45 957.87,272.95 964.51,287.66 " fill="none" id="0cd855cce83e7d426305cc51cc088621-605693217fec6c844e8ecc339fc26381" style="stroke:#181818;stroke-width:1.0;"/></g><!--link 605693217fec6c844e8ecc339fc26381 to f11af3547113106dd0505e0fedbf032a--><g id="link_605693217fec6c844e8ecc339fc26381_f11af3547113106dd0505e0fedbf032a"><path codeLine="71" d="M976.83,303.79 C1007.81,326.31 1111.41,401.61 1142.26,424.03 " fill="none" id="605693217fec6c844e8ecc339fc26381-f11af3547113106dd0505e0fedbf032a" style="stroke:#181818;stroke-width:1.0;"/></g><!--link 0cd855cce83e7d426305cc51cc088621 to 38d0bf08629bf0f54d6d81aa9862de34--><g id="link_0cd855cce83e7d426305cc51cc088621_38d0bf08629bf0f54d6d81aa9862de34"><path codeLine="72" d="M972.52,206.85 C1005.47,239.45 1039.33,272.95 1054.2,287.66 " fill="none" id="0cd855cce83e7d426305cc51cc088621-38d0bf08629bf0f54d6d81aa9862de34" style="stroke:#181818;stroke-width:1.0;"/></g><!--link 38d0bf08629bf0f54d6d81aa9862de34 to da00a6243221f321c0cc7a8802b537f8--><g id="link_38d0bf08629bf0f54d6d81aa9862de34_da00a6243221f321c0cc7a8802b537f8"><path codeLine="73" d="M1070.95,301.92 C1088.54,311.01 1128.53,332.55 1159,355.38 C1188.45,377.44 1219.29,408.59 1232.87,422.79 " fill="none" id="38d0bf08629bf0f54d6d81aa9862de34-da00a6243221f321c0cc7a8802b537f8" style="stroke:#181818;stroke-width:1.0;"/></g><!--link 7cbba8a1603213acbecd647fa574de79 to b54ebb51d6e82578a142d89bf881c987--><g id="link_7cbba8a1603213acbecd647fa574de79_b54ebb51d6e82578a142d89bf881c987"><path codeLine="74" d="M424,560.97 C424,582.59 424,617.76 424,639.39 " fill="none" id="7cbba8a1603213acbecd647fa574de79-b54ebb51d6e82578a142d89bf881c987" style="stroke:#181818;stroke-width:1.0;"/><text fill="#000000" font-family="sans-serif" font-size="13" lengthAdjust="spacing" textLength="14" x="425" y="605.7369">rw</text></g><!--link 0cd855cce83e7d426305cc51cc088621 to 7cbba8a1603213acbecd647fa574de79--><g id="link_0cd855cce83e7d426305cc51cc088621_7cbba8a1603213acbecd647fa574de79"><path codeLine="75" d="M801.76,206.79 C690.21,305.2 511.9693,462.4206 449.8993,517.1806 " fill="none" id="0cd855cce83e7d426305cc51cc088621-to-7cbba8a1603213acbecd647fa574de79" style="stroke:#181818;stroke-width:1.0;stroke-dasharray:7.0,7.0;"/><polygon fill="#181818" points="445.4,521.15,454.7952,518.1954,449.1494,517.8422,449.5027,512.1963,445.4,521.15" style="stroke:#181818;stroke-width:1.0;"/><text fill="#000000" font-family="sans-serif" font-size="13" lengthAdjust="spacing" textLength="23" x="632" y="368.4469">use</text></g><!--link 39e6a6a957c37e8fb66f7156a3c179cc to 3afa48f4b92a1b076e524cfb72ef6f27--><g id="link_39e6a6a957c37e8fb66f7156a3c179cc_3afa48f4b92a1b076e524cfb72ef6f27"><path codeLine="76" d="M690,560.97 C690,582.59 690,617.76 690,639.39 " fill="none" id="39e6a6a957c37e8fb66f7156a3c179cc-3afa48f4b92a1b076e524cfb72ef6f27" style="stroke:#181818;stroke-width:1.0;"/><text fill="#000000" font-family="sans-serif" font-size="13" lengthAdjust="spacing" textLength="14" x="691" y="605.7369">rw</text></g><!--link 0cd855cce83e7d426305cc51cc088621 to 39e6a6a957c37e8fb66f7156a3c179cc--><g id="link_0cd855cce83e7d426305cc51cc088621_39e6a6a957c37e8fb66f7156a3c179cc"><path codeLine="77" d="M853.05,206.79 C804.9,305.2 728.6667,461.0004 701.8767,515.7604 " fill="none" id="0cd855cce83e7d426305cc51cc088621-to-39e6a6a957c37e8fb66f7156a3c179cc" style="stroke:#181818;stroke-width:1.0;stroke-dasharray:7.0,7.0;"/><polygon fill="#181818" points="699.24,521.15,706.7881,514.8234,701.4373,516.6587,699.602,511.3078,699.24,521.15" style="stroke:#181818;stroke-width:1.0;"/><text fill="#000000" font-family="sans-serif" font-size="13" lengthAdjust="spacing" textLength="23" x="780" y="368.4469">use</text></g><!--link ec40a5cc0ffe24a2983b1af78dd7f255 to 8c54763f567116e69ba15acadd0f45eb--><g id="link_ec40a5cc0ffe24a2983b1af78dd7f255_8c54763f567116e69ba15acadd0f45eb"><path codeLine="78" d="M966,560.97 C966,582.59 966,617.76 966,639.39 " fill="none" id="ec40a5cc0ffe24a2983b1af78dd7f255-8c54763f567116e69ba15acadd0f45eb" style="stroke:#181818;stroke-width:1.0;"/><text fill="#000000" font-family="sans-serif" font-size="13" lengthAdjust="spacing" textLength="14" x="967" y="605.7369">rw</text></g><!--link 0cd855cce83e7d426305cc51cc088621 to ec40a5cc0ffe24a2983b1af78dd7f255--><g id="link_0cd855cce83e7d426305cc51cc088621_ec40a5cc0ffe24a2983b1af78dd7f255"><path codeLine="79" d="M904.25,206.85 C909.97,243.06 917.05,286.43 924,325.38 C936.95,397.9 953.1797,477.8933 960.8697,515.2333 " fill="none" id="0cd855cce83e7d426305cc51cc088621-to-ec40a5cc0ffe24a2983b1af78dd7f255" style="stroke:#181818;stroke-width:1.0;stroke-dasharray:7.0,7.0;"/><polygon fill="#181818" points="962.08,521.11,964.1824,511.4881,961.0714,516.2128,956.3468,513.1018,962.08,521.11" style="stroke:#181818;stroke-width:1.0;"/><text fill="#000000" font-family="sans-serif" font-size="13" lengthAdjust="spacing" textLength="23" x="933" y="368.4469">use</text></g><!--link 5785734213b8d553a50570ffb23c952f to 00ec6211f7b37b16e0021e197b742299--><g id="link_5785734213b8d553a50570ffb23c952f_00ec6211f7b37b16e0021e197b742299"><path codeLine="80" d="M2138.38,174.04 C2154.02,213.89 2175.15,267.72 2182.95,287.59 " fill="none" id="5785734213b8d553a50570ffb23c952f-00ec6211f7b37b16e0021e197b742299" style="stroke:#181818;stroke-width:1.0;"/></g><!--link 00ec6211f7b37b16e0021e197b742299 to 1ccfe473426413dc7e1fd5b39690265c--><g id="link_00ec6211f7b37b16e0021e197b742299_1ccfe473426413dc7e1fd5b39690265c"><path codeLine="81" d="M2194.66,302.88 C2204.13,308.79 2219.85,318.29 2234,325.38 C2312.54,364.7 2337.83,362.32 2416,402.38 C2429.31,409.2 2443.95,418.43 2453.06,424.39 " fill="none" id="00ec6211f7b37b16e0021e197b742299-1ccfe473426413dc7e1fd5b39690265c" style="stroke:#181818;stroke-width:1.0;"/></g><!--link 5785734213b8d553a50570ffb23c952f to e69a8066253269d5c0acdc95af9c6e89--><g id="link_5785734213b8d553a50570ffb23c952f_e69a8066253269d5c0acdc95af9c6e89"><path codeLine="82" d="M2164.01,174.04 C2201.45,213.89 2252.02,267.72 2270.69,287.59 " fill="none" id="5785734213b8d553a50570ffb23c952f-e69a8066253269d5c0acdc95af9c6e89" style="stroke:#181818;stroke-width:1.0;"/></g><!--link e69a8066253269d5c0acdc95af9c6e89 to 93123a89c306fe23f9a83932f4cd11f1--><g id="link_e69a8066253269d5c0acdc95af9c6e89_93123a89c306fe23f9a83932f4cd11f1"><path codeLine="83" d="M2286.71,303.4 C2295.6,309.4 2309.9,318.66 2323,325.38 C2402.99,366.37 2430.22,360.98 2510,402.38 C2522.7,408.97 2536.48,418.09 2545.18,424.1 " fill="none" id="e69a8066253269d5c0acdc95af9c6e89-93123a89c306fe23f9a83932f4cd11f1" style="stroke:#181818;stroke-width:1.0;"/></g><!--link 5785734213b8d553a50570ffb23c952f to 7785862a577df56836e39bbed09a15da--><g id="link_5785734213b8d553a50570ffb23c952f_7785862a577df56836e39bbed09a15da"><path codeLine="84" d="M2189.97,174.26 C2251.22,215.47 2334.49,271.48 2361.3,289.52 " fill="none" id="5785734213b8d553a50570ffb23c952f-7785862a577df56836e39bbed09a15da" style="stroke:#181818;stroke-width:1.0;"/></g><!--link 7785862a577df56836e39bbed09a15da to eae0a4816a27581574b6b4ce013362e0--><g id="link_7785862a577df56836e39bbed09a15da_eae0a4816a27581574b6b4ce013362e0"><path codeLine="85" d="M2378.9,301.05 C2409.83,313.9 2515.36,358.45 2599,402.38 C2612.62,409.53 2627.83,418.84 2637.15,424.72 " fill="none" id="7785862a577df56836e39bbed09a15da-eae0a4816a27581574b6b4ce013362e0" style="stroke:#181818;stroke-width:1.0;"/></g><!--link 869498090ac775d3251c02f4ecc7ab1f to 58b9e70b65a77700ba66e9c64d6b9f89--><g id="link_869498090ac775d3251c02f4ecc7ab1f_58b9e70b65a77700ba66e9c64d6b9f89"><path codeLine="86" d="M1414,560.97 C1414,582.59 1414,617.76 1414,639.39 " fill="none" id="869498090ac775d3251c02f4ecc7ab1f-58b9e70b65a77700ba66e9c64d6b9f89" style="stroke:#181818;stroke-width:1.0;"/><text fill="#000000" font-family="sans-serif" font-size="13" lengthAdjust="spacing" textLength="14" x="1415" y="605.7369">rw</text></g><!--link 5785734213b8d553a50570ffb23c952f to 869498090ac775d3251c02f4ecc7ab1f--><g id="link_5785734213b8d553a50570ffb23c952f_869498090ac775d3251c02f4ecc7ab1f"><path codeLine="87" d="M2039.7,174.14 C1885.02,264.6 1556.8894,456.4711 1451.6894,517.9911 " fill="none" id="5785734213b8d553a50570ffb23c952f-to-869498090ac775d3251c02f4ecc7ab1f" style="stroke:#181818;stroke-width:1.0;stroke-dasharray:7.0,7.0;"/><polygon fill="#181818" points="1446.51,521.02,1456.2983,519.9296,1450.8262,518.496,1452.2598,513.0238,1446.51,521.02" style="stroke:#181818;stroke-width:1.0;"/><text fill="#000000" font-family="sans-serif" font-size="13" lengthAdjust="spacing" textLength="23" x="1727" y="368.4469">use</text></g><!--link 3f5d010b2e80203186ab507508a8b5d1 to bea6223569a87d78a6db219a7ce0703d--><g id="link_3f5d010b2e80203186ab507508a8b5d1_bea6223569a87d78a6db219a7ce0703d"><path codeLine="88" d="M1733.84,560.97 C1733.65,582.59 1733.35,617.76 1733.16,639.39 " fill="none" id="3f5d010b2e80203186ab507508a8b5d1-bea6223569a87d78a6db219a7ce0703d" style="stroke:#181818;stroke-width:1.0;"/></g><!--link 5785734213b8d553a50570ffb23c952f to 3f5d010b2e80203186ab507508a8b5d1--><g id="link_5785734213b8d553a50570ffb23c952f_3f5d010b2e80203186ab507508a8b5d1"><path codeLine="89" d="M2076.1,174.14 C1991.52,264.6 1813.3878,455.1173 1755.8678,516.6373 " fill="none" id="5785734213b8d553a50570ffb23c952f-to-3f5d010b2e80203186ab507508a8b5d1" style="stroke:#181818;stroke-width:1.0;stroke-dasharray:7.0,7.0;"/><polygon fill="#181818" points="1751.77,521.02,1760.8385,517.1778,1755.1848,517.3677,1754.9948,511.7141,1751.77,521.02" style="stroke:#181818;stroke-width:1.0;"/><text fill="#000000" font-family="sans-serif" font-size="13" lengthAdjust="spacing" textLength="23" x="1905" y="368.4469">use</text></g><!--link f44ab9ec9325b7bc5240b9bc1757255b to e1635863dda4bcfdd7957416aac826f8--><g id="link_f44ab9ec9325b7bc5240b9bc1757255b_e1635863dda4bcfdd7957416aac826f8"><path codeLine="90" d="M2040,560.97 C2040,582.59 2040,617.76 2040,639.39 " fill="none" id="f44ab9ec9325b7bc5240b9bc1757255b-e1635863dda4bcfdd7957416aac826f8" style="stroke:#181818;stroke-width:1.0;"/><text fill="#000000" font-family="sans-serif" font-size="13" lengthAdjust="spacing" textLength="14" x="2041" y="605.7369">rw</text></g><!--link 5785734213b8d553a50570ffb23c952f to f44ab9ec9325b7bc5240b9bc1757255b--><g id="link_5785734213b8d553a50570ffb23c952f_f44ab9ec9325b7bc5240b9bc1757255b"><path codeLine="91" d="M2102.64,174.08 C2086.57,219.69 2063.48,291.29 2052,355.38 C2041.29,415.14 2039.8636,481.3 2039.8436,514.98 " fill="none" id="5785734213b8d553a50570ffb23c952f-to-f44ab9ec9325b7bc5240b9bc1757255b" style="stroke:#181818;stroke-width:1.0;stroke-dasharray:7.0,7.0;"/><polygon fill="#181818" points="2039.84,520.98,2043.84,511.98,2039.84,515.98,2035.84,511.98,2039.84,520.98" style="stroke:#181818;stroke-width:1.0;"/><text fill="#000000" font-family="sans-serif" font-size="13" lengthAdjust="spacing" textLength="23" x="2053" y="368.4469">use</text></g><!--link 789ecd28b5f6ca17a2452e7cc9ed9304 to 827d3c793e77b9f263e306864079db9c--><g id="link_789ecd28b5f6ca17a2452e7cc9ed9304_827d3c793e77b9f263e306864079db9c"><path codeLine="92" d="M2288,560.97 C2288,582.59 2288,617.76 2288,639.39 " fill="none" id="789ecd28b5f6ca17a2452e7cc9ed9304-827d3c793e77b9f263e306864079db9c" style="stroke:#181818;stroke-width:1.0;"/><text fill="#000000" font-family="sans-serif" font-size="13" lengthAdjust="spacing" textLength="14" x="2289" y="605.7369">rw</text></g><!--link 5785734213b8d553a50570ffb23c952f to 789ecd28b5f6ca17a2452e7cc9ed9304--><g id="link_5785734213b8d553a50570ffb23c952f_789ecd28b5f6ca17a2452e7cc9ed9304"><path codeLine="93" d="M2117.91,173.91 C2117.59,215.03 2120.87,275.88 2139,325.38 C2168.73,406.52 2232.6288,481.3711 2265.4788,516.6111 " fill="none" id="5785734213b8d553a50570ffb23c952f-to-789ecd28b5f6ca17a2452e7cc9ed9304" style="stroke:#181818;stroke-width:1.0;stroke-dasharray:7.0,7.0;"/><polygon fill="#181818" points="2269.57,521,2266.3591,511.6892,2266.1607,517.3426,2260.5073,517.1442,2269.57,521" style="stroke:#181818;stroke-width:1.0;"/><text fill="#000000" font-family="sans-serif" font-size="13" lengthAdjust="spacing" textLength="23" x="2160" y="368.4469">use</text></g><!--SRC=[dLPTQsD737tthp1vQWEnvripWHIMTbyAfOMMKYWbQ4QQnDJETNrliXjA_tlbU-Ei7KecwTDw7Law8vrp95olkq-RrUVLtStihYEUdtsNp-ROpmc0F7jbaRIpgVheiRZaJ8ZPUftdVy_cfTjikpk-6-RMU-GCM6oD5PtbICdLN1Mx72cK-U-pytFAv-UpsMg3DtmvtppsVwql_G9cipzcNtqzFxDMXR6o9XDgneG4mVfeQWXQbsA1TCmfyGntmwfY6UPdomVSBTUhl1opZR-srXkdJD3PLkzqzJKxq5dxM7D61xD_djxviP-g6GUgibE1d5CQA0N6BCKe-5gqEtsdAXIzBuMZPI1fXbNoFo_mL8p1wF6Tt1-zazVO3wlIC-xAxIKiD2oCdl7TmshNtMqav-MSLdtf7dZtk1WUjtpLoopMVB57UHgNksxeXnrk5nlUTBl7wtLN_hmQTlSluZx-VFtzXry_NF_uqoy_NrtyjkczDfkvVFYy_t0QUpiCsyMssmrNoIXrcCN-yzYTe7n8rcYeN4A9pd5a6ONmeSZRevwYxLEqZQHavjA89Fz8-obGr8X9lY6sxdXoz_rksT_YZfSd7LeI3ZWcWoBpYgY3aleMI-P2mK553uuOqbkIhRkRQSesSS20oOFmY8KA8LJGFg0j6b8fRqcsNT_VhEwcV5oSGfcygfMDGvEYpHehH2Aenljdblt0cuBbbcdw6Pd48A82vsoEnb4kcWfcLbYZXbEoKO84nGS9ZDuLzhQ0J06Suk2XXf5icqE1OsqTlhlKYx0meyGEWBxjxdSzNpnpRiI58HT14LErAYPZPLQKv0lFnkGQNeZ0G_HWdKn5jEszHQ-yQAXcOqlofewuoeiwnvAWpzssNpx_wNAD0_V3WNmw2h56M4e9wupM5KIGMGTMocZM2J8uOr8Qmv-ZEIICAWJZhGc9V55OI01XJILmdABTSpZ8AuINGYUWwaEqWMtAcKabr9xmc1A2U8dRxHV8ozF-nP1SYYf9HG1FreWZA5ETQ0Kmw_h6NClzYAut7Tsl-OctrPFIAXkEoYYhOv2XA65Gn9WzwPU9ztxu9Ts6QJM9gJg7EN4HBViCkUmzCYSX7tWGkkRNy_G3YWpgwe0AegGY8mXgAAW1ZVE6ePJ496RWX6mdZixH9r65B0WLF95ZHbaEoOK4DgbOJpsdQb6IzUBQscgnPLB2BnQF9Z4LQ_3KSmYLmc2SDKPNSOgYzZsFqgxiBTJuWbBYr6BsU_O6foqLO5t9Pvj2agNXoocbajN6Oan5NY92jrKOPgM7rHKIMkeNb68K7Rke0nhmKOjHvP15k4fR6moheoulbWlYX-L3jxxVi6XXMhgW8kTIBIUk28ggLYpaD8MpTvXUIR3FSN1EYUMSlIPXlH6nedQ6ebXoZBga2Azc-MAPA8iyLfUJGPqL11RIb9h1S0tLl9xbs2jZaLa6ONAGYGPHQHPzOK4PR7L2YkD4um-yh7a6bOD7050gOmWi6fPrabEDwN-hARCmnLY_DmeWQKoWR7H2a161idJofCd0hlzBJQptXqcmHEXaNEBvibYSZ1rBbDiblfu7-vw7fzOO837r9CS4oDDafR8mBGQd855EPTQygoxeedqmjGB6B4sHjYwhCKkBmVFB-TdkqrdxOOi5BHRVDC-vVRxxdizcpSjiZwvvphG2nYnDWteJbkQnr0eOipJjhtL6ZLbQZd6OMlDXJrDh5ZrChNMNJPrgED5xqJMB7j2rhhmHNSlUtekkMVI0hdc6xT4rJwXMmEGmhQtv9YpD0wqLC6PfxkGtOMbUVws0wKMjXTyw3CSihNrtO53pOKyCQXPzLb_ZkfoyeRKqtmghMUq0gtMiJgrlxE3tDgrPz82kTVnEfj1OxEz5ropwXEvV]--></g></svg>